HIERARCHY
ROOT hip
{
  OFFSET 0 0 0
  CHANNELS 6 Xposition Yposition Zposition Zrotation Yrotation Xrotation
  JOINT abdomen
  {
    OFFSET 0 20.6881 -0.73152
    CHANNELS 3 Zrotation Xrotation Yrotation
    JOINT chest
    {
      OFFSET 0 11.7043 -0.48768
      CHANNELS 3 Zrotation Xrotation Yrotation
      JOINT neck
      {
        OFFSET 0 22.1894 -2.19456
        CHANNELS 3 Zrotation Xrotation Yrotation
        JOINT head
        {
          OFFSET -0.24384 7.07133 1.2192
          CHANNELS 3 Zrotation Xrotation Yrotation
          JOINT leftEye
          {
            OFFSET 4.14528 8.04674 8.04672
            CHANNELS 3 Zrotation Xrotation Yrotation
            End Site
            {
              OFFSET 1 0 0
            }
          }
          JOINT rightEye
          {
            OFFSET -3.6576 8.04674 8.04672
            CHANNELS 3 Zrotation Xrotation Yrotation
            End Site
            {
              OFFSET 1 0 0
            }
          }
        }
      }
      JOINT rCollar
      {
        OFFSET -2.68224 19.2634 -4.8768
        CHANNELS 3 Zrotation Xrotation Yrotation
        JOINT rShldr
        {
          OFFSET -8.77824 -1.95073 1.46304
          CHANNELS 3 Zrotation Xrotation Yrotation
          JOINT rForeArm
          {
            OFFSET -28.1742 -1.7115 0.48768
            CHANNELS 3 Zrotation Xrotation Yrotation
            JOINT rHand
            {
              OFFSET -22.5879 0.773209 7.07136
              CHANNELS 3 Zrotation Xrotation Yrotation
              JOINT rThumb1
              {
                OFFSET -1.2192 -0.487915 3.41376
                CHANNELS 3 Zrotation Xrotation Yrotation
                JOINT rThumb2
                {
                  OFFSET -3.37035 -0.52449 3.41376
                  CHANNELS 3 Zrotation Xrotation Yrotation
                  End Site
                  {
                    OFFSET -1.78271 -1.18214 1.43049
                  }
                }
              }
              JOINT rIndex1
              {
                OFFSET -7.75947 0.938293 5.60832
                CHANNELS 3 Zrotation Xrotation Yrotation
                JOINT rIndex2
                {
                  OFFSET -2.54057 -0.884171 1.56538
                  CHANNELS 3 Zrotation Xrotation Yrotation
                  End Site
                  {
                    OFFSET -1.62519 -0.234802 1.16502
                  }
                }
              }
              JOINT rMid1
              {
                OFFSET -8.24714 1.18213 3.41376
                CHANNELS 3 Zrotation Xrotation Yrotation
                JOINT rMid2
                {
                  OFFSET -3.10165 -0.590103 1.0647
                  CHANNELS 3 Zrotation Xrotation Yrotation
                  End Site
                  {
                    OFFSET -2.48547 -0.328903 0.83742
                  }
                }
              }
              JOINT rRing1
              {
                OFFSET -8.82822 0.546677 1.51678
                CHANNELS 3 Zrotation Xrotation Yrotation
                JOINT rRing2
                {
                  OFFSET -2.60934 -0.819778 -0.0198488
                  CHANNELS 3 Zrotation Xrotation Yrotation
                  End Site
                  {
                    OFFSET -2.33842 -0.294052 0.168128
                  }
                }
              }
              JOINT rPinky1
              {
                OFFSET -8.27202 -0.0477905 -0.4584
                CHANNELS 3 Zrotation Xrotation Yrotation
                JOINT rPinky2
                {
                  OFFSET -1.82734 -0.647385 -0.700984
                  CHANNELS 3 Zrotation Xrotation Yrotation
                  End Site
                  {
                    OFFSET -1.69225 -0.51767 -0.607171
                  }
                }
              }
            }
          }
        }
      }
      JOINT lCollar
      {
        OFFSET 2.68224 19.2634 -4.8768
        CHANNELS 3 Zrotation Xrotation Yrotation
        JOINT lShldr
        {
          OFFSET 8.77824 -1.95073 1.46304
          CHANNELS 3 Zrotation Xrotation Yrotation
          JOINT lForeArm
          {
            OFFSET 28.1742 -1.7115 0.48768
            CHANNELS 3 Zrotation Xrotation Yrotation
            JOINT lHand
            {
              OFFSET 22.5879 0.773209 7.07136
              CHANNELS 3 Zrotation Xrotation Yrotation
              JOINT lThumb1
              {
                OFFSET 1.2192 -0.487915 3.41376
                CHANNELS 3 Zrotation Xrotation Yrotation
                JOINT lThumb2
                {
                  OFFSET 3.37035 -0.52449 3.41376
                  CHANNELS 3 Zrotation Xrotation Yrotation
                  End Site
                  {
                    OFFSET 1.78271 -1.18214 1.43049
                  }
                }
              }
              JOINT lIndex1
              {
                OFFSET 7.75947 0.938293 5.60832
                CHANNELS 3 Zrotation Xrotation Yrotation
                JOINT lIndex2
                {
                  OFFSET 2.54057 -0.884171 1.56538
                  CHANNELS 3 Zrotation Xrotation Yrotation
                  End Site
                  {
                    OFFSET 1.62519 -0.234802 1.16502
                  }
                }
              }
              JOINT lMid1
              {
                OFFSET 8.24714 1.18213 3.41376
                CHANNELS 3 Zrotation Xrotation Yrotation
                JOINT lMid2
                {
                  OFFSET 3.10165 -0.590103 1.0647
                  CHANNELS 3 Zrotation Xrotation Yrotation
                  End Site
                  {
                    OFFSET 2.48547 -0.328903 0.83742
                  }
                }
              }
              JOINT lRing1
              {
                OFFSET 8.82822 0.546677 1.51678
                CHANNELS 3 Zrotation Xrotation Yrotation
                JOINT lRing2
                {
                  OFFSET 2.60934 -0.819778 -0.0198488
                  CHANNELS 3 Zrotation Xrotation Yrotation
                  End Site
                  {
                    OFFSET 2.33842 -0.294052 0.168128
                  }
                }
              }
              JOINT lPinky1
              {
                OFFSET 8.27202 -0.0477905 -0.4584
                CHANNELS 3 Zrotation Xrotation Yrotation
                JOINT lPinky2
                {
                  OFFSET 1.82734 -0.647385 -0.700984
                  CHANNELS 3 Zrotation Xrotation Yrotation
                  End Site
                  {
                    OFFSET 1.69225 -0.51767 -0.607171
                  }
                }
              }
            }
          }
        }
      }
    }
  }
  JOINT rButtock
  {
    OFFSET -8.77824 4.35084 1.2192
    CHANNELS 3 Zrotation Xrotation Yrotation
    JOINT rThigh
    {
      OFFSET 0 -1.70687 -2.19456
      CHANNELS 3 Zrotation Xrotation Yrotation
      JOINT rShin
      {
        OFFSET 0 -36.8199 0.73152
        CHANNELS 3 Zrotation Xrotation Yrotation
        JOINT rFoot
        {
          OFFSET 0.73152 -45.1104 -5.12064
          CHANNELS 3 Zrotation Xrotation Yrotation
          End Site
          {
            OFFSET -1.1221 -3.69964 12.103
          }
        }
      }
    }
  }
  JOINT lButtock
  {
    OFFSET 8.77824 4.35084 1.2192
    CHANNELS 3 Zrotation Xrotation Yrotation
    JOINT lThigh
    {
      OFFSET 0 -1.70687 -2.19456
      CHANNELS 3 Zrotation Xrotation Yrotation
      JOINT lShin
      {
        OFFSET 0 -36.8199 0.73152
        CHANNELS 3 Zrotation Xrotation Yrotation
        JOINT lFoot
        {
          OFFSET -0.73152 -45.1104 -5.12064
          CHANNELS 3 Zrotation Xrotation Yrotation
          End Site
          {
            OFFSET 1.1221 -3.69964 12.103
          }
        }
      }
    }
  }
}
MOTION
Frames:	4
Frame Time:	0.00833333
-3.3072 84.302 42.9985 -3.8335 3.8398 -1.4056 -2.65458 3.47731 -3.16226 2.56931 -8.94102 -0.707689 -6.39185 -23.8039 -6.25378 9.63723 -11.375 -7.17251 -0.0 0.0 0.0 -0.0 0.0 0.0 8.35403e-14 -2.14656e-14 -2.62337e-14 32.1125 54.5439 32.7921 -28.4212 -37.1669 78.8316 -0.0308397 -5.06694 -0.713839 -4.74971e-10 -1.9436e-09 1.15167e-09 -8.23948e-10 -3.36717e-09 1.99081e-09 -4.74972e-10 -1.9436e-09 1.15165e-09 7.73091 5.47488 0.417314 -4.74975e-10 -1.9436e-09 1.15166e-09 2.90554 0.965183 0.102902 -4.74968e-10 -1.9436e-09 1.15166e-09 10.2786 0.731801 0.0259123 -4.74973e-10 -1.94359e-09 1.15166e-09 2.22167 -0.733487 -0.20892 8.35092e-14 -2.14724e-14 -2.65028e-14 -27.8151 17.5857 -66.1503 27.4168 -27.845 -63.808 0.008155 2.42663 -0.341263 -4.83185e-10 -7.1808e-11 2.98095e-10 -8.33764e-10 -1.28496e-10 5.17156e-10 -4.83204e-10 -7.17906e-11 2.98105e-10 -7.73091 5.47488 -0.417314 -4.83197e-10 -7.17893e-11 2.98088e-10 -2.90554 0.965183 -0.102902 -4.83189e-10 -7.1798e-11 2.98096e-10 -10.2786 0.731801 -0.0259123 -4.83187e-10 -7.17993e-11 2.98092e-10 -2.22167 -0.733487 0.20892 -2.03217e-16 0.0 -3.88251e-19 -3.07532 11.2143 -1.15285 0.0056708 0.466761 0.0501765 -3.9887 -13.7503 -13.617 2.03217e-16 0.0 3.88251e-19 8.97714 -5.75952 -6.79492 0.0979415 24.7498 -0.532378 3.38505 -16.4946 9.65877
-3.32448 84.4097 42.8437 -3.737 4.2693 -1.0516 -2.77844 4.189 -3.96643 2.46262 -9.31831 -0.945557 -6.00524 -23.256 -5.98788 9.5073 -11.7279 -6.95677 -0.0 0.0 0.0 -0.0 0.0 0.0 4.89633e-14 -2.38511e-14 2.64881e-14 32.6516 54.0839 31.9439 -28.2999 -38.3439 81.0022 -0.0446684 -6.02091 -0.849343 -1.85436e-10 -1.32974e-09 8.33754e-10 -3.23288e-10 -2.30643e-09 1.44171e-09 -1.85436e-10 -1.32973e-09 8.33735e-10 7.73091 5.47488 0.417314 -1.8544e-10 -1.32973e-09 8.33747e-10 2.90554 0.965183 0.102902 -1.85433e-10 -1.32973e-09 8.33745e-10 10.2786 0.731801 0.0259123 -1.85437e-10 -1.32973e-09 8.33747e-10 2.22167 -0.733487 -0.20892 4.89414e-14 -2.38577e-14 2.61899e-14 -27.8545 18.9118 -65.1859 27.2831 -27.3336 -63.0044 0.0061207 2.23324 -0.314022 -6.88526e-10 5.67548e-10 2.7848e-10 -1.18902e-09 9.77321e-10 4.82294e-10 -6.88548e-10 5.67569e-10 2.78493e-10 -7.73091 5.47488 -0.417314 -6.88541e-10 5.6757e-10 2.78473e-10 -2.90554 0.965183 -0.102902 -6.8853e-10 5.67561e-10 2.78483e-10 -10.2786 0.731801 -0.0259123 -6.8853e-10 5.67559e-10 2.7848e-10 -2.22167 -0.733487 0.20892 -2.03217e-16 0.0 -3.88251e-19 -3.06472 10.8756 -1.55601 0.00560354 0.466226 0.049586 -3.95167 -13.4793 -13.7071 2.03217e-16 0.0 3.88251e-19 8.98896 -6.3041 -6.76352 0.0989521 24.7459 -0.525004 3.17786 -15.9342 9.31112
-3.35595 84.5345 42.6553 -3.693 4.6966 -0.7465 -2.80813 5.15748 -4.65393 2.31365 -9.81756 -1.15332 -5.6372 -22.6496 -5.75111 9.32856 -12.1615 -6.78431 -0.0 0.0 0.0 -0.0 0.0 0.0 4.45687e-14 -4.25866e-14 7.68186e-14 32.8121 53.2516 31.5149 -28.1576 -39.4742 83.0147 -0.0594776 -6.87693 -0.971256 1.28768e-10 -6.10575e-10 2.1602e-10 2.22619e-10 -1.05587e-09 3.7491e-10 1.28768e-10 -6.10572e-10 2.16004e-10 7.73091 5.47488 0.417314 1.28764e-10 -6.1057e-10 2.16015e-10 2.90554 0.965183 0.102902 1.28776e-10 -6.10565e-10 2.16013e-10 10.2786 0.731801 0.0259123 1.28767e-10 -6.10567e-10 2.16018e-10 2.22167 -0.733487 -0.20892 4.45609e-14 -4.25928e-14 7.65325e-14 -27.6728 20.5335 -64.1034 27.1568 -26.882 -62.3091 0.00435675 1.95242 -0.27449 -1.09496e-09 1.92821e-09 3.06167e-10 -1.89184e-09 3.33015e-09 5.29297e-10 -1.09498e-09 1.92823e-09 3.06183e-10 -7.73091 5.47488 -0.417314 -1.09497e-09 1.92823e-09 3.06164e-10 -2.90554 0.965183 -0.102902 -1.09496e-09 1.92822e-09 3.06172e-10 -10.2786 0.731801 -0.0259123 -1.09496e-09 1.92822e-09 3.0617e-10 -2.22167 -0.733487 0.20892 -2.03217e-16 0.0 -3.88251e-19 -3.01594 10.5321 -1.94414 0.00561063 0.476602 0.04966 -3.94539 -13.2345 -13.8871 2.03217e-16 0.0 3.88251e-19 9.00988 -6.84717 -6.76164 0.100228 24.7758 -0.519014 2.99202 -15.2959 9.0388
-3.40645 84.6619 42.4192 -3.6903 5.0324 -0.4626 -2.75808 6.32824 -5.25334 2.10815 -10.425 -1.33956 -5.28585 -21.9824 -5.54248 9.12283 -12.6624 -6.65429 -0.0 0.0 0.0 -0.0 0.0 0.0 5.47178e-14 -7.11621e-14 1.30459e-13 32.8175 52.0476 31.3313 -27.9843 -40.6041 84.952 -0.0726718 -7.62698 -1.07836 4.90514e-10 2.58442e-10 -6.41868e-10 8.52461e-10 4.58904e-10 -1.10659e-09 4.90515e-10 2.58446e-10 -6.4188e-10 7.73091 5.47488 0.417314 4.9051e-10 2.58446e-10 -6.41871e-10 2.90554 0.965183 0.102902 4.9053e-10 2.58458e-10 -6.41871e-10 10.2786 0.731801 0.0259123 4.90515e-10 2.58448e-10 -6.41862e-10 2.22167 -0.733487 -0.20892 5.47261e-14 -7.11676e-14 1.30207e-13 -27.3058 22.5161 -62.9118 27.0475 -26.5024 -61.7013 0.00250601 1.53388 -0.215608 -1.64318e-09 3.81866e-09 3.61652e-10 -2.83977e-09 6.59903e-09 6.24316e-10 -1.6432e-09 3.81868e-09 3.61672e-10 -7.73091 5.47488 -0.417314 -1.64319e-09 3.81867e-09 3.61654e-10 -2.90554 0.965183 -0.102902 -1.64318e-09 3.81867e-09 3.61659e-10 -10.2786 0.731801 -0.0259123 -1.64318e-09 3.81867e-09 3.61657e-10 -2.22167 -0.733487 0.20892 -2.03217e-16 0.0 -3.88251e-19 -2.94466 10.1789 -2.32302 0.00566128 0.493929 0.0501258 -3.95582 -12.9971 -14.1258 2.03217e-16 0.0 3.88251e-19 9.03448 -7.40101 -6.77427 0.101711 24.8311 -0.513858 2.81673 -14.5978 8.80625
